# xmcd
#
# Track frame offsets:
#       150
#       17250
#       30300
#       48225
#       69075
#
# Disc length: 1275 seconds
#
# Revision: 0
# Processed by: cddbd v1.5.1PL0 Copyright (c) Steve Scherf et al.
# Submitted via: WaveLab 4.01
#
DISCID=2804f905
DTITLE=Aleksandar Nikov - 005
DYEAR=2005
DGENRE=lo - fi
TTITLE0=concert for piano and delay [ oo5 version ]
TTITLE1=no name 
TTITLE2=plains for...
TTITLE3=test oo4
TTITLE4=oo5 [ combo mix ]
EXTD=
EXTT0=
EXTT1=
EXTT2=
EXTT3=
EXTT4=
PLAYORDER=
